<?xml version="1.0" standalone="no"?>
<!DOCTYPE svg PUBLIC "-//W3C//DTD SVG 20010904//EN"
 "http://www.w3.org/TR/2001/REC-SVG-20010904/DTD/svg10.dtd">
<svg version="1.0" xmlns="http://www.w3.org/2000/svg"
 width="700.000000pt" height="700.000000pt" viewBox="0 0 700.000000 700.000000"
 preserveAspectRatio="xMidYMid meet">
<metadata>
Created by potrace 1.11, written by Peter Selinger 2001-2013
</metadata>
<g transform="translate(0.000000,700.000000) scale(0.100000,-0.100000)"
fill="#000000" stroke="none">
<path d="M1015 6122 c-2 -2 -20 -6 -41 -9 -105 -14 -243 -86 -334 -173 -94
-91 -151 -191 -185 -325 -17 -66 -18 -186 -18 -2090 0 -1111 3 -2046 7 -2078
34 -267 234 -488 501 -553 65 -16 246 -17 2560 -17 2337 0 2494 1 2555 17 270
72 468 297 496 561 4 33 7 962 7 2065 0 1530 -3 2020 -13 2070 -49 263 -275
485 -535 526 -48 7 -4992 13 -5000 6z m4970 -453 c63 -24 109 -72 128 -136 9
-29 12 -141 12 -380 l0 -338 -2625 0 -2625 0 0 330 c-1 182 3 348 8 370 10 48
48 108 82 131 68 44 -31 43 2533 43 2426 1 2432 1 2487 -20z m141 -2724 c0
-1160 -2 -1439 -13 -1477 -15 -51 -61 -106 -115 -135 -32 -17 -134 -18 -2481
-19 -1550 -1 -2463 2 -2487 8 -47 12 -110 70 -135 123 -19 39 -19 92 -20 1480
0 792 2 1442 6 1445 4 3 1185 5 2626 5 l2618 0 1 -1430z"/>
<path d="M1428 5440 c-78 -49 -116 -114 -113 -195 6 -185 221 -280 357 -157
73 65 97 158 63 240 -19 44 -46 75 -102 113 -59 41 -138 41 -205 -1z"/>
<path d="M2115 5454 c-48 -18 -76 -43 -117 -106 -28 -45 -30 -54 -25 -114 4
-50 11 -72 33 -102 58 -76 122 -107 201 -98 151 18 240 168 179 301 -50 109
-163 159 -271 119z"/>
<path d="M2770 5454 c-45 -20 -100 -62 -100 -78 0 -7 -9 -23 -20 -36 -21 -24
-23 -35 -22 -108 1 -61 40 -122 104 -163 103 -66 215 -41 287 63 62 89 56 181
-15 261 -16 19 -45 42 -64 52 -45 23 -126 27 -170 9z"/>
<path d="M3884 3930 c-44 -10 -90 -39 -115 -74 -42 -56 -917 -1820 -922 -1858
-9 -69 11 -126 62 -178 48 -50 95 -70 161 -70 47 0 119 34 151 70 15 17 230
437 478 934 495 990 481 955 439 1048 -11 24 -29 54 -41 66 -49 53 -139 79
-213 62z"/>
<path d="M2319 3699 c-35 -15 -127 -102 -406 -382 -333 -335 -361 -365 -372
-409 -32 -133 -27 -140 390 -555 248 -246 366 -356 393 -367 81 -33 182 -10
242 55 55 60 71 133 47 214 -14 45 -39 75 -284 320 l-269 270 261 260 c279
278 303 309 302 396 -1 86 -58 171 -132 201 -48 19 -124 18 -172 -3z"/>
<path d="M4505 3699 c-81 -40 -128 -113 -128 -200 0 -84 26 -117 303 -394
l260 -260 -269 -270 c-247 -248 -270 -274 -284 -321 -51 -174 100 -323 277
-272 35 10 97 67 399 367 211 209 367 372 379 396 29 55 31 130 7 186 -15 32
-110 134 -362 387 -188 189 -361 355 -385 369 -57 34 -141 39 -197 12z"/>
</g>
</svg>
